<svg xmlns="http://www.w3.org/2000/svg" width="369" height="100" fill="none" viewBox="0 0 369 100">
    <defs>
        <style>
            @import url('https://fonts.googleapis.com/css?family=Overpass:300,900');
        </style>
    </defs>
    <path fill="url(#paint0_linear)" d="M34.6894 84H32.8563C12.0017 84 8.83357 81.0584 8.7701 60.5911L43.8342 51.75L34.6894 84Z"/>
    <path fill="url(#paint1_linear)" d="M34.6894 84H54.3066C63.8367 84 69.6736 83.3858 73.21 80.7675L43.9523 51.7201L43.8342 51.75L34.6894 84Z"/>
    <path fill="url(#paint2_linear)" d="M73.21 80.7675C77.4909 77.592 78.3948 71.4742 78.3948 59.9391V43.0763C78.3948 43.0623 78.3948 43.0487 78.3948 43.0356L43.9523 51.7201L73.21 80.7675Z"/>
    <path fill="url(#paint3_linear)" d="M43.8342 51.75L8.7701 60.5911C8.76839 60.3797 8.7681 60.1602 8.7681 59.9391V43.0763C8.7681 31.3804 9.69732 25.2541 14.1394 22.1218L43.8666 51.6351L43.8342 51.75Z"/>
    <path fill="url(#paint4_linear)" d="M43.8342 51.75L43.9523 51.7201L43.8666 51.6351L43.8342 51.75Z"/>
    <path fill="url(#paint5_linear)" d="M43.8666 51.6351L14.1394 22.1218C17.6875 19.6088 23.487 19.0151 32.8563 19.0151H53.1164L43.8666 51.6351Z"/>
    <path fill="url(#paint6_linear)" d="M43.8666 51.6351L43.9523 51.7201L78.3948 43.0356C78.3908 22.0156 75.369 19.0151 54.3066 19.0151H53.1164L43.8666 51.6351Z"/>
    <g style="mix-blend-mode:color">
        <path fill="#6DA5B7" d="M54.2143 19C75.2906 19 78.3027 22.0046 78.3027 43.0611V59.9239C78.3027 80.9804 75.2906 83.985 54.2143 83.985H32.7642C11.688 83.985 8.67586 80.9804 8.67586 59.9239V43.0611C8.67586 22.0046 11.688 19 32.7642 19H54.2143Z"/>
    </g>
    <path fill="#2E3842" fill-opacity="0.2" d="M43.5803 34.2632C33.292 34.2632 24.9519 42.6034 24.9519 52.8917C24.9519 63.1797 33.292 71.5199 43.5803 71.5199C53.8686 71.5199 62.2088 63.1797 62.2088 52.8917V38.9204C62.2088 36.3402 60.1315 34.2632 57.5516 34.2632H43.5803ZM54.0587 38.9204C55.9877 38.9204 57.5516 40.484 57.5516 42.413C57.5516 44.342 55.9877 45.9059 54.0587 45.9059C52.1297 45.9059 50.5658 44.342 50.5658 42.413C50.5658 40.484 52.1297 38.9204 54.0587 38.9204Z"/>
    <path fill="white" d="M43.5803 33.2632C33.292 33.2632 24.9519 41.6034 24.9519 51.8917C24.9519 62.1797 33.292 70.5199 43.5803 70.5199C53.8686 70.5199 62.2088 62.1797 62.2088 51.8917V37.9204C62.2088 35.3402 60.1315 33.2632 57.5516 33.2632H43.5803ZM54.0587 37.9204C55.9877 37.9204 57.5516 39.484 57.5516 41.413C57.5516 43.342 55.9877 44.9059 54.0587 44.9059C52.1297 44.9059 50.5658 43.342 50.5658 41.413C50.5658 39.484 52.1297 37.9204 54.0587 37.9204Z"/>
    <path fill="url(#paint7_linear)" fill-rule="evenodd" d="M54.0399 19.002C55.2716 18.9992 56.5034 19.0132 57.7351 19.0412C58.8381 19.0635 59.941 19.1055 61.044 19.1698C62.0266 19.2257 63.0092 19.3068 63.989 19.4131C64.8596 19.5081 65.7302 19.6367 66.5924 19.7961C67.365 19.9387 68.1293 20.1205 68.8823 20.3414C69.5653 20.5399 70.2344 20.786 70.8811 21.0767C71.4829 21.3452 72.0596 21.6639 72.6055 22.0302C73.129 22.3825 73.6189 22.7852 74.0668 23.2298C74.5119 23.6771 74.915 24.1637 75.2677 24.6865C75.6344 25.2318 75.9536 25.8078 76.2251 26.4062C76.5163 27.0549 76.7626 27.7203 76.9642 28.3998C77.1853 29.152 77.3673 29.9153 77.51 30.687C77.6696 31.5482 77.7984 32.415 77.8936 33.2846C77.9999 34.2633 78.0811 35.2419 78.1371 36.2234C78.2015 37.3222 78.2435 38.4239 78.2687 39.5228C78.2939 40.7531 78.3079 41.9834 78.3051 43.2109V59.7779C78.3079 61.0082 78.2939 62.2357 78.2687 63.466C78.2435 64.5677 78.2015 65.6666 78.1371 66.7654C78.0811 67.7469 77.9999 68.7283 77.8936 69.7042C77.7984 70.5738 77.6696 71.4434 77.51 72.3046C77.3673 73.0735 77.1853 73.8369 76.9642 74.589C76.7626 75.2685 76.5163 75.9367 76.2251 76.5826C75.9536 77.1838 75.6344 77.757 75.2677 78.3023C74.915 78.8251 74.5119 79.3145 74.0668 79.759C73.6189 80.2036 73.129 80.6063 72.6055 80.9586C72.0596 81.3249 71.4829 81.6436 70.8811 81.9121C70.2344 82.2029 69.5653 82.4489 68.8823 82.6502C68.1293 82.8711 67.365 83.0529 66.5924 83.1927C65.7302 83.3549 64.8596 83.4807 63.989 83.5758C63.0092 83.682 62.0266 83.7631 61.044 83.819C59.941 83.8833 58.8381 83.9253 57.7351 83.9504C56.5034 83.9756 55.2716 83.9896 54.0399 83.9868H32.9436C31.7119 83.9896 30.4802 83.9756 29.2484 83.9504C28.1455 83.9253 27.0425 83.8833 25.9396 83.819C24.957 83.7631 23.9744 83.682 22.9946 83.5758C22.124 83.4807 21.2534 83.3549 20.3912 83.1927C19.6185 83.0529 18.8543 82.8711 18.1012 82.6502C17.4182 82.4489 16.7491 82.2029 16.1025 81.9121C15.5006 81.6436 14.9239 81.3249 14.378 80.9586C13.8546 80.6063 13.3647 80.2036 12.9168 79.759C12.4717 79.3145 12.0685 78.8251 11.7158 78.3023C11.3491 77.757 11.03 77.1838 10.7584 76.5826C10.4673 75.9367 10.2209 75.2685 10.0194 74.589C9.79824 73.8369 9.61627 73.0735 9.47351 72.3046C9.31394 71.4434 9.18517 70.5738 9.08999 69.7042C8.98361 68.7283 8.90243 67.7469 8.84644 66.7654C8.78205 65.6666 8.74006 64.5677 8.71487 63.466C8.68967 62.2357 8.67568 61.0082 8.67848 59.7779V43.2109C8.67568 41.9834 8.68967 40.7531 8.71487 39.5228C8.74006 38.4239 8.78205 37.3222 8.84644 36.2234C8.90243 35.2419 8.98361 34.2633 9.08999 33.2846C9.18517 32.415 9.31394 31.5482 9.47351 30.687C9.61627 29.9153 9.79824 29.152 10.0194 28.3998C10.2209 27.7203 10.4673 27.0549 10.7584 26.4062C11.03 25.8078 11.3491 25.2318 11.7158 24.6865C12.0685 24.1637 12.4717 23.6771 12.9168 23.2298C13.3647 22.7852 13.8546 22.3825 14.378 22.0302C14.9239 21.6639 15.5006 21.3452 16.1025 21.0767C16.7491 20.786 17.4182 20.5399 18.1012 20.3414C18.8543 20.1205 19.6185 19.9387 20.3912 19.7961C21.2534 19.6367 22.124 19.5081 22.9946 19.4131C23.9744 19.3068 24.957 19.2257 25.9396 19.1698C27.0425 19.1055 28.1455 19.0635 29.2484 19.0412C30.4802 19.0132 31.7119 18.9992 32.9436 19.002H54.0399ZM54.0427 20.1428C55.266 20.14 56.4894 20.154 57.7127 20.1792C58.8017 20.2044 59.8906 20.2463 60.9796 20.3078C61.9426 20.3637 62.9056 20.442 63.863 20.5483C64.7084 20.6378 65.551 20.7608 66.3852 20.9174C67.1187 21.0516 67.8465 21.2249 68.5632 21.4347C69.1958 21.6192 69.8145 21.8485 70.4136 22.1169C70.9566 22.3602 71.4773 22.6482 71.97 22.9781C72.4319 23.2885 72.863 23.6436 73.2578 24.0378C73.6525 24.4321 74.008 24.8627 74.3215 25.3241C74.6519 25.8162 74.9402 26.3335 75.1837 26.8731C75.4525 27.4743 75.682 28.0922 75.8668 28.7214C76.0795 29.4372 76.2503 30.1614 76.3875 30.8939C76.5414 31.7272 76.6646 32.566 76.757 33.4105C76.8634 34.3667 76.9418 35.3258 76.9977 36.2877C77.0593 37.3754 77.1041 38.4603 77.1265 39.548C77.1517 40.7699 77.1657 41.989 77.1657 43.2109V59.7779C77.1657 60.9998 77.1517 62.2189 77.1265 63.4409C77.1041 64.5285 77.0593 65.6162 76.9977 66.7011C76.9418 67.663 76.8634 68.6221 76.757 69.5812C76.6646 70.4228 76.5414 71.2616 76.3875 72.0949C76.2503 72.8275 76.0795 73.5516 75.8668 74.2675C75.682 74.8994 75.4525 75.5145 75.1837 76.1157C74.9402 76.6553 74.6519 77.1754 74.3215 77.6648C74.008 78.1289 73.6525 78.5595 73.2578 78.9538C72.863 79.3452 72.4319 79.7003 71.97 80.0107C71.4773 80.3406 70.9566 80.6286 70.4136 80.8719C69.8145 81.1431 69.1958 81.3696 68.5632 81.5542C67.8465 81.7639 67.1187 81.9372 66.3852 82.0714C65.551 82.228 64.7084 82.3511 63.863 82.4433C62.9056 82.5468 61.9426 82.6279 60.9796 82.681C59.8906 82.7425 58.8017 82.7873 57.7127 82.8096C56.4894 82.8376 55.266 82.8488 54.0427 82.8488C54.0427 82.8488 54.0427 82.8488 54.0399 82.8488H32.9436C32.9408 82.8488 32.9408 82.8488 32.9408 82.8488C31.7175 82.8488 30.4942 82.8376 29.2708 82.8096C28.1819 82.7873 27.0929 82.7425 26.0039 82.681C25.0409 82.6279 24.078 82.5468 23.1206 82.4433C22.2751 82.3511 21.4325 82.228 20.5983 82.0714C19.8649 81.9372 19.137 81.7639 18.4204 81.5542C17.7877 81.3696 17.169 81.1431 16.57 80.8719C16.0269 80.6286 15.5062 80.3406 15.0135 80.0107C14.5516 79.7003 14.1205 79.3452 13.7258 78.9538C13.3311 78.5595 12.9756 78.1289 12.662 77.6648C12.3317 77.1754 12.0434 76.6553 11.7998 76.1157C11.5311 75.5145 11.3015 74.8994 11.1168 74.2675C10.904 73.5516 10.7332 72.8275 10.5961 72.0949C10.4421 71.2616 10.3189 70.4228 10.2265 69.5812C10.1202 68.6221 10.0418 67.663 9.9858 66.7011C9.92421 65.6162 9.87942 64.5285 9.85702 63.4409C9.83183 62.2189 9.81783 60.9998 9.81783 59.7779V43.2109C9.81783 41.989 9.83183 40.7699 9.85702 39.548C9.87942 38.4603 9.92421 37.3754 9.9858 36.2877C10.0418 35.3258 10.1202 34.3667 10.2265 33.4105C10.3189 32.566 10.4421 31.7272 10.5961 30.8939C10.7332 30.1614 10.904 29.4372 11.1168 28.7214C11.3015 28.0922 11.5311 27.4743 11.7998 26.8731C12.0434 26.3335 12.3317 25.8162 12.662 25.3241C12.9756 24.8627 13.3311 24.4321 13.7258 24.0378C14.1205 23.6436 14.5516 23.2885 15.0135 22.9781C15.5062 22.6482 16.0269 22.3602 16.57 22.1169C17.169 21.8485 17.7877 21.6192 18.4204 21.4347C19.137 21.2249 19.8649 21.0516 20.5983 20.9174C21.4325 20.7608 22.2751 20.6378 23.1206 20.5483C24.078 20.442 25.0409 20.3637 26.0039 20.3078C27.0929 20.2463 28.1819 20.2044 29.2708 20.1792C30.4942 20.154 31.7175 20.14 32.9408 20.1428C32.9408 20.1428 32.9408 20.1428 32.9436 20.1428H54.0399C54.0427 20.1428 54.0427 20.1428 54.0427 20.1428Z" clip-rule="evenodd" opacity="0.4"/>
    <path fill="#68A0B2" fill-rule="evenodd" d="M355.14 55.4561H96V50.9571H355.14V55.4561Z" clip-rule="evenodd"/>
    <path fill="#8CC4D6" fill-rule="evenodd" d="M114.896 55.4561H96V50.9571H117.595L114.896 55.4561Z" clip-rule="evenodd"/>
    <path fill="#8CC4D6" fill-rule="evenodd" d="M154.486 55.4561H132.891L135.591 50.9571H157.186L154.486 55.4561Z" clip-rule="evenodd"/>
    <path fill="#8CC4D6" fill-rule="evenodd" d="M199.476 55.4561H177.881L180.58 50.9571H202.175L199.476 55.4561Z" clip-rule="evenodd"/>
    <path fill="#8CC4D6" fill-rule="evenodd" d="M244.465 55.4561H222.87L225.57 50.9571H247.165L244.465 55.4561Z" clip-rule="evenodd"/>
    <path fill="#8CC4D6" fill-rule="evenodd" d="M289.455 55.4561H267.86L270.559 50.9571H292.154L289.455 55.4561Z" clip-rule="evenodd"/>
    <path fill="#8CC4D6" fill-rule="evenodd" d="M334.444 55.4561H312.849L315.549 50.9571H337.144L334.444 55.4561Z" clip-rule="evenodd"/>
    <text x="96" y="40" fill="#387082" font-family="Overpass" font-size="31px" font-weight="900">
        Colour Telinkriser
    </text>
    <text x="96" y="80" fill="#68A0B2" font-family="Overpass" font-size="20px" font-weight="300">
        Daniel Ruiz de Alegría
    </text>
<!--<path fill="#387082" d="M107.04 43.32C105.355 43.32 103.872 42.9893 102.592 42.328C101.333 41.6453 100.352 40.7387 99.648 39.608C98.944 38.4773 98.4213 37.2613 98.08 35.96C97.76 34.6587 97.6 33.272 97.6 31.8C97.6 30.456 97.7707 29.144 98.112 27.864C98.4533 26.5627 98.976 25.336 99.68 24.184C100.384 23.0107 101.365 22.072 102.624 21.368C103.904 20.6427 105.376 20.28 107.04 20.28C109.067 20.28 110.795 20.8027 112.224 21.848C113.653 22.8933 114.667 24.1627 115.264 25.656L110.912 27.608C110.293 26.6907 109.696 26.0187 109.12 25.592C108.565 25.1653 107.872 24.952 107.04 24.952C106.251 24.952 105.557 25.1653 104.96 25.592C104.363 25.9973 103.904 26.552 103.584 27.256C103.264 27.9387 103.029 28.664 102.88 29.432C102.731 30.1787 102.656 30.968 102.656 31.8C102.656 32.9307 102.795 33.9973 103.072 35C103.371 36.0027 103.861 36.8667 104.544 37.592C105.248 38.296 106.08 38.648 107.04 38.648C108.427 38.648 109.696 37.688 110.848 35.768L115.296 37.432C113.483 41.3573 110.731 43.32 107.04 43.32ZM125.566 43.384C123.22 43.384 121.364 42.6267 119.998 41.112C118.654 39.5973 117.982 37.5067 117.982 34.84C117.982 32.1947 118.665 30.104 120.03 28.568C121.396 27.032 123.241 26.264 125.566 26.264C127.87 26.264 129.695 27.032 131.039 28.568C132.404 30.104 133.087 32.1947 133.087 34.84C133.087 37.5067 132.415 39.5973 131.071 41.112C129.727 42.6267 127.892 43.384 125.566 43.384ZM125.566 38.904C126.484 38.904 127.188 38.552 127.679 37.848C128.19 37.1227 128.446 36.12 128.446 34.84C128.446 33.56 128.19 32.5573 127.679 31.832C127.188 31.1067 126.484 30.744 125.566 30.744C124.67 30.744 123.956 31.1067 123.423 31.832C122.889 32.5573 122.622 33.56 122.622 34.84C122.622 36.12 122.889 37.1227 123.423 37.848C123.956 38.552 124.67 38.904 125.566 38.904ZM137.575 43V22.072L142.215 19.896V43H137.575ZM154.269 43.384C151.922 43.384 150.066 42.6267 148.701 41.112C147.357 39.5973 146.685 37.5067 146.685 34.84C146.685 32.1947 147.368 30.104 148.733 28.568C150.098 27.032 151.944 26.264 154.269 26.264C156.573 26.264 158.397 27.032 159.741 28.568C161.106 30.104 161.789 32.1947 161.789 34.84C161.789 37.5067 161.117 39.5973 159.773 41.112C158.429 42.6267 156.594 43.384 154.269 43.384ZM154.269 38.904C155.186 38.904 155.89 38.552 156.381 37.848C156.893 37.1227 157.149 36.12 157.149 34.84C157.149 33.56 156.893 32.5573 156.381 31.832C155.89 31.1067 155.186 30.744 154.269 30.744C153.373 30.744 152.658 31.1067 152.125 31.832C151.592 32.5573 151.325 33.56 151.325 34.84C151.325 36.12 151.592 37.1227 152.125 37.848C152.658 38.552 153.373 38.904 154.269 38.904ZM166.117 43V26.648H170.757V28.12C170.971 27.6933 171.355 27.2773 171.909 26.872C172.464 26.4667 173.115 26.264 173.861 26.264C175.141 26.264 176.219 26.7227 177.093 27.64L176.485 31.864C175.589 31.1173 174.619 30.744 173.573 30.744C171.696 30.744 170.757 31.8747 170.757 34.136V43H166.117ZM199.395 25.272V43H194.531V25.272H188.099V20.6H205.827V25.272H199.395ZM213.741 43.384C211.33 43.384 209.432 42.6267 208.045 41.112C206.658 39.5973 205.965 37.496 205.965 34.808C205.965 32.184 206.658 30.104 208.045 28.568C209.453 27.032 211.352 26.264 213.741 26.264C215.917 26.264 217.688 26.9253 219.053 28.248C220.418 29.5707 221.101 31.4907 221.101 34.008C221.101 35.0533 221.058 35.8533 220.973 36.408H210.509C210.552 37.432 210.872 38.2 211.469 38.712C212.066 39.2027 212.824 39.448 213.741 39.448C215.234 39.448 216.461 38.872 217.421 37.72L220.109 40.408C218.466 42.392 216.344 43.384 213.741 43.384ZM210.541 32.92H216.653C216.418 31.1067 215.384 30.2 213.549 30.2C212.717 30.2 212.034 30.4453 211.501 30.936C210.968 31.4053 210.648 32.0667 210.541 32.92ZM225.432 43V22.072L230.072 19.896V43H225.432ZM237.711 25.08C236.985 25.08 236.356 24.824 235.823 24.312C235.289 23.7787 235.023 23.1493 235.023 22.424C235.023 21.6987 235.279 21.08 235.791 20.568C236.324 20.056 236.964 19.8 237.711 19.8C238.457 19.8 239.087 20.056 239.599 20.568C240.111 21.0587 240.367 21.6773 240.367 22.424C240.367 23.1493 240.111 23.7787 239.599 24.312C239.087 24.824 238.457 25.08 237.711 25.08ZM235.375 43V26.648H240.015V43H235.375ZM255.274 43V34.488C255.274 33.1653 255.072 32.216 254.666 31.64C254.282 31.0427 253.621 30.744 252.682 30.744C251.68 30.744 250.944 31.0427 250.474 31.64C250.026 32.2373 249.802 33.1653 249.802 34.424V43H245.162V26.648H249.802V28.152C250.848 26.8933 252.33 26.264 254.25 26.264C255.765 26.264 257.088 26.744 258.218 27.704C259.349 28.664 259.914 30.2213 259.914 32.376V43H255.274ZM280.121 43H275.065L270.745 34.776L269.529 35.896V43H264.889V22.072L269.529 19.896V30.744L273.657 26.648H279.161L274.169 31.48L280.121 43ZM283.615 43V26.648H288.255V28.12C288.468 27.6933 288.852 27.2773 289.407 26.872C289.962 26.4667 290.612 26.264 291.359 26.264C292.639 26.264 293.716 26.7227 294.591 27.64L293.983 31.864C293.087 31.1173 292.116 30.744 291.071 30.744C289.194 30.744 288.255 31.8747 288.255 34.136V43H283.615ZM299.928 25.08C299.203 25.08 298.573 24.824 298.04 24.312C297.507 23.7787 297.24 23.1493 297.24 22.424C297.24 21.6987 297.496 21.08 298.008 20.568C298.541 20.056 299.181 19.8 299.928 19.8C300.675 19.8 301.304 20.056 301.816 20.568C302.328 21.0587 302.584 21.6773 302.584 22.424C302.584 23.1493 302.328 23.7787 301.816 24.312C301.304 24.824 300.675 25.08 299.928 25.08ZM297.592 43V26.648H302.232V43H297.592ZM312.98 43.384C311.636 43.384 310.345 43.1067 309.108 42.552C307.871 41.976 306.921 41.2187 306.26 40.28L309.236 37.752C309.684 38.2 310.26 38.616 310.964 39C311.668 39.384 312.383 39.576 313.108 39.576C314.623 39.576 315.38 39.1493 315.38 38.296C315.38 37.912 315.177 37.6027 314.772 37.368C314.388 37.112 313.663 36.7813 312.596 36.376C310.569 35.6933 309.097 34.968 308.18 34.2C307.263 33.4107 306.804 32.312 306.804 30.904C306.804 29.4747 307.38 28.344 308.532 27.512C309.705 26.68 311.156 26.264 312.884 26.264C315.359 26.264 317.407 27.1707 319.028 28.984L316.02 31.448C315.017 30.5307 313.972 30.072 312.884 30.072C311.604 30.072 310.964 30.424 310.964 31.128C310.964 31.7893 312.031 32.3867 314.164 32.92C314.932 33.176 315.561 33.4213 316.052 33.656C316.564 33.8693 317.119 34.1893 317.716 34.616C318.313 35.0213 318.761 35.5333 319.06 36.152C319.38 36.7707 319.54 37.4853 319.54 38.296C319.54 39.896 318.943 41.144 317.748 42.04C316.575 42.936 314.985 43.384 312.98 43.384ZM330.582 43.384C328.172 43.384 326.273 42.6267 324.886 41.112C323.5 39.5973 322.806 37.496 322.806 34.808C322.806 32.184 323.5 30.104 324.886 28.568C326.294 27.032 328.193 26.264 330.582 26.264C332.758 26.264 334.529 26.9253 335.894 28.248C337.26 29.5707 337.942 31.4907 337.942 34.008C337.942 35.0533 337.9 35.8533 337.814 36.408H327.35C327.393 37.432 327.713 38.2 328.31 38.712C328.908 39.2027 329.665 39.448 330.582 39.448C332.076 39.448 333.302 38.872 334.262 37.72L336.95 40.408C335.308 42.392 333.185 43.384 330.582 43.384ZM327.382 32.92H333.494C333.26 31.1067 332.225 30.2 330.39 30.2C329.558 30.2 328.876 30.4453 328.342 30.936C327.809 31.4053 327.489 32.0667 327.382 32.92ZM342.114 43V26.648H346.754V28.12C346.967 27.6933 347.351 27.2773 347.906 26.872C348.46 26.4667 349.111 26.264 349.858 26.264C351.138 26.264 352.215 26.7227 353.09 27.64L352.482 31.864C351.586 31.1173 350.615 30.744 349.57 30.744C347.692 30.744 346.754 31.8747 346.754 34.136V43H342.114Z"/>-->
    <!-- <path fill="#5E96A8" d="M98.1 66H101.82C102.953 66 103.947 66.2 104.8 66.6C105.653 67 106.313 67.54 106.78 68.22C107.247 68.9 107.593 69.64 107.82 70.44C108.047 71.24 108.16 72.0933 108.16 73C108.16 73.68 108.1 74.34 107.98 74.98C107.86 75.6067 107.647 76.2333 107.34 76.86C107.033 77.4733 106.647 78.0133 106.18 78.48C105.713 78.9333 105.1 79.3 104.34 79.58C103.58 79.86 102.713 80 101.74 80H98.1V66ZM101.84 78.74C102.733 78.74 103.507 78.5733 104.16 78.24C104.827 77.9067 105.333 77.4533 105.68 76.88C106.04 76.3067 106.3 75.7 106.46 75.06C106.62 74.42 106.7 73.7333 106.7 73C106.7 71.4 106.313 70.0467 105.54 68.94C104.767 67.82 103.607 67.26 102.06 67.26H99.5V78.74H101.84ZM117.475 80V79C116.555 79.8267 115.555 80.24 114.475 80.24C113.408 80.24 112.561 79.9467 111.935 79.36C111.308 78.76 110.995 77.9 110.995 76.78C110.995 75.6733 111.348 74.8333 112.055 74.26C112.775 73.6867 113.661 73.4 114.715 73.4C115.661 73.4 116.581 73.64 117.475 74.12V73.26C117.475 71.5933 116.728 70.76 115.235 70.76C114.275 70.76 113.261 71.1267 112.195 71.86L111.795 70.66C112.968 69.9133 114.161 69.54 115.375 69.54C115.788 69.54 116.175 69.5933 116.535 69.7C116.895 69.7933 117.248 69.9667 117.595 70.22C117.955 70.46 118.241 70.8267 118.455 71.32C118.668 71.8 118.775 72.3867 118.775 73.08V80H117.475ZM114.615 79.02C115.668 79.02 116.621 78.4933 117.475 77.44V75.46C116.635 74.9 115.761 74.62 114.855 74.62C114.121 74.62 113.508 74.8067 113.015 75.18C112.535 75.54 112.295 76.0733 112.295 76.78C112.295 77.46 112.495 78.0067 112.895 78.42C113.308 78.82 113.881 79.02 114.615 79.02ZM128.506 80V73.76C128.506 72.7333 128.292 71.9867 127.866 71.52C127.439 71.04 126.859 70.8 126.126 70.8C124.446 70.8 123.606 71.7733 123.606 73.72V80H122.206V69.78H123.606V70.9C124.232 69.9933 125.112 69.54 126.246 69.54C127.499 69.54 128.419 69.92 129.006 70.68C129.606 71.44 129.906 72.66 129.906 74.34V80H128.506ZM135.017 67.42C134.844 67.5933 134.624 67.68 134.357 67.68C134.091 67.68 133.871 67.5933 133.697 67.42C133.524 67.2467 133.437 67.0267 133.437 66.76C133.437 66.4933 133.524 66.2667 133.697 66.08C133.884 65.8933 134.104 65.8 134.357 65.8C134.624 65.8 134.844 65.8933 135.017 66.08C135.191 66.2667 135.277 66.4933 135.277 66.76C135.277 67.0267 135.191 67.2467 135.017 67.42ZM133.657 80V69.78H135.057V80H133.657ZM142.656 80.24C141.323 80.24 140.25 79.72 139.436 78.68C138.623 77.64 138.216 76.3733 138.216 74.88C138.216 73.2133 138.623 71.9067 139.436 70.96C140.25 70.0133 141.323 69.54 142.656 69.54C143.83 69.54 144.796 69.96 145.556 70.8C146.316 71.6267 146.696 72.8533 146.696 74.48C146.696 74.84 146.683 75.1667 146.656 75.46H139.696C139.816 76.5267 140.136 77.3733 140.656 78C141.176 78.6267 141.863 78.94 142.716 78.94C143.53 78.94 144.296 78.6733 145.016 78.14L145.776 79.08C144.843 79.8533 143.803 80.24 142.656 80.24ZM139.656 74.2H145.276C145.263 72.96 144.99 72.0867 144.456 71.58C143.936 71.06 143.336 70.8 142.656 70.8C141.803 70.8 141.103 71.0867 140.556 71.66C140.01 72.2333 139.71 73.08 139.656 74.2ZM149.842 80V66.24L151.242 65.56V80H149.842ZM160.327 80V66H165.467C166.987 66 168.087 66.3733 168.767 67.12C169.447 67.8533 169.787 68.76 169.787 69.84C169.787 70.7867 169.507 71.62 168.947 72.34C168.387 73.0467 167.514 73.4933 166.327 73.68L169.427 80H167.887L164.887 73.74H161.727V80H160.327ZM161.727 72.48H165.507C166.52 72.48 167.26 72.2333 167.727 71.74C168.207 71.2333 168.447 70.62 168.447 69.9C168.447 69.22 168.214 68.6133 167.747 68.08C167.294 67.5333 166.547 67.26 165.507 67.26H161.727V72.48ZM179.533 80V79.02C179.187 79.4733 178.813 79.7933 178.413 79.98C178.027 80.1533 177.553 80.24 176.993 80.24C175.673 80.24 174.713 79.8667 174.113 79.12C173.527 78.3733 173.233 77.16 173.233 75.48V69.78H174.633V76.02C174.633 77.0333 174.847 77.78 175.273 78.26C175.7 78.74 176.273 78.98 176.993 78.98C178.687 78.98 179.533 78.0067 179.533 76.06V69.78H180.933V80H179.533ZM186.145 67.42C185.971 67.5933 185.751 67.68 185.485 67.68C185.218 67.68 184.998 67.5933 184.825 67.42C184.651 67.2467 184.565 67.0267 184.565 66.76C184.565 66.4933 184.651 66.2667 184.825 66.08C185.011 65.8933 185.231 65.8 185.485 65.8C185.751 65.8 185.971 65.8933 186.145 66.08C186.318 66.2667 186.405 66.4933 186.405 66.76C186.405 67.0267 186.318 67.2467 186.145 67.42ZM184.785 80V69.78H186.185V80H184.785ZM189.644 80V79.14L194.864 71.04H190.044V69.78H196.724V70.62L191.464 78.74H196.704V80H189.644ZM208.634 80.24C207.327 80.24 206.294 79.76 205.534 78.8C204.787 77.8267 204.414 76.52 204.414 74.88C204.414 73.2133 204.787 71.9067 205.534 70.96C206.294 70.0133 207.327 69.54 208.634 69.54C209.647 69.54 210.554 69.86 211.354 70.5V66.26L212.754 65.56V80H211.354V79.12C210.607 79.8667 209.7 80.24 208.634 80.24ZM208.794 78.98C209.314 78.98 209.8 78.84 210.254 78.56C210.707 78.28 211.074 77.8867 211.354 77.38V72.28C210.74 71.2933 209.887 70.8 208.794 70.8C207.86 70.8 207.14 71.1533 206.634 71.86C206.127 72.5667 205.874 73.5733 205.874 74.88C205.874 76.0533 206.14 77.0333 206.674 77.82C207.207 78.5933 207.914 78.98 208.794 78.98ZM220.324 80.24C218.991 80.24 217.917 79.72 217.104 78.68C216.291 77.64 215.884 76.3733 215.884 74.88C215.884 73.2133 216.291 71.9067 217.104 70.96C217.917 70.0133 218.991 69.54 220.324 69.54C221.497 69.54 222.464 69.96 223.224 70.8C223.984 71.6267 224.364 72.8533 224.364 74.48C224.364 74.84 224.351 75.1667 224.324 75.46H217.364C217.484 76.5267 217.804 77.3733 218.324 78C218.844 78.6267 219.531 78.94 220.384 78.94C221.197 78.94 221.964 78.6733 222.684 78.14L223.444 79.08C222.511 79.8533 221.471 80.24 220.324 80.24ZM217.324 74.2H222.944C222.931 72.96 222.657 72.0867 222.124 71.58C221.604 71.06 221.004 70.8 220.324 70.8C219.471 70.8 218.771 71.0867 218.224 71.66C217.677 72.2333 217.377 73.08 217.324 74.2ZM240.279 80L238.999 76.38H233.539L232.319 80H230.859L235.719 66H236.799L241.699 80H240.279ZM238.579 75.14L236.659 69.54C236.445 68.94 236.312 68.52 236.259 68.28L236.099 68.8C236.005 69.16 235.932 69.4067 235.879 69.54L233.959 75.14H238.579ZM245.041 80V66.24L246.441 65.56V80H245.041ZM254.116 80.24C252.783 80.24 251.709 79.72 250.896 78.68C250.083 77.64 249.676 76.3733 249.676 74.88C249.676 73.2133 250.083 71.9067 250.896 70.96C251.709 70.0133 252.783 69.54 254.116 69.54C255.289 69.54 256.256 69.96 257.016 70.8C257.776 71.6267 258.156 72.8533 258.156 74.48C258.156 74.84 258.143 75.1667 258.116 75.46H251.156C251.276 76.5267 251.596 77.3733 252.116 78C252.636 78.6267 253.323 78.94 254.176 78.94C254.989 78.94 255.756 78.6733 256.476 78.14L257.236 79.08C256.303 79.8533 255.263 80.24 254.116 80.24ZM251.116 74.2H256.736C256.723 72.96 256.449 72.0867 255.916 71.58C255.396 71.06 254.796 70.8 254.116 70.8C253.263 70.8 252.563 71.0867 252.016 71.66C251.469 72.2333 251.169 73.08 251.116 74.2ZM264.082 84.26L263.442 83.16C264.975 83.08 266.029 82.8 266.602 82.32C267.189 81.84 267.482 81.2 267.482 80.4V78.84C266.855 79.7733 265.922 80.24 264.682 80.24C263.509 80.24 262.515 79.7733 261.702 78.84C260.902 77.8933 260.502 76.5733 260.502 74.88C260.502 73.2267 260.895 71.9267 261.682 70.98C262.469 70.02 263.495 69.54 264.762 69.54C265.895 69.54 266.802 69.94 267.482 70.74V69.78H268.882V79.84C268.882 82.6533 267.282 84.1267 264.082 84.26ZM265.002 78.98C265.442 78.98 265.895 78.8267 266.362 78.52C266.842 78.2 267.215 77.7867 267.482 77.28V72.36C267.215 71.88 266.835 71.5 266.342 71.22C265.862 70.94 265.415 70.8 265.002 70.8C264.002 70.8 263.242 71.1533 262.722 71.86C262.215 72.5533 261.962 73.56 261.962 74.88C261.962 76.16 262.242 77.1667 262.802 77.9C263.375 78.62 264.109 78.98 265.002 78.98ZM272.731 80V69.78H274.131V71.22C274.651 70.1 275.511 69.54 276.711 69.54C277.284 69.54 277.764 69.68 278.151 69.96L277.931 71.32C277.518 71.0667 277.078 70.94 276.611 70.94C275.984 70.94 275.411 71.2067 274.891 71.74C274.384 72.26 274.131 73.0867 274.131 74.22V80H272.731ZM279.448 68.48L282.288 65.36H284.428L280.868 68.48H279.448ZM280.608 80V69.78H282.008V80H280.608ZM291.747 80V79C290.827 79.8267 289.827 80.24 288.747 80.24C287.681 80.24 286.834 79.9467 286.207 79.36C285.581 78.76 285.267 77.9 285.267 76.78C285.267 75.6733 285.621 74.8333 286.327 74.26C287.047 73.6867 287.934 73.4 288.987 73.4C289.934 73.4 290.854 73.64 291.747 74.12V73.26C291.747 71.5933 291.001 70.76 289.507 70.76C288.547 70.76 287.534 71.1267 286.467 71.86L286.067 70.66C287.241 69.9133 288.434 69.54 289.647 69.54C290.061 69.54 290.447 69.5933 290.807 69.7C291.167 69.7933 291.521 69.9667 291.867 70.22C292.227 70.46 292.514 70.8267 292.727 71.32C292.941 71.8 293.047 72.3867 293.047 73.08V80H291.747ZM288.887 79.02C289.941 79.02 290.894 78.4933 291.747 77.44V75.46C290.907 74.9 290.034 74.62 289.127 74.62C288.394 74.62 287.781 74.8067 287.287 75.18C286.807 75.54 286.567 76.0733 286.567 76.78C286.567 77.46 286.767 78.0067 287.167 78.42C287.581 78.82 288.154 79.02 288.887 79.02Z"/> -->
    <defs>
        <linearGradient id="paint0_linear" x1="8.7701" x2="8.7701" y1="51.75" y2="84.0003" gradientUnits="userSpaceOnUse">
            <stop stop-color="#FFB357"/>
            <stop offset="0.5" stop-color="#FF8B51"/>
            <stop offset="1" stop-color="#F55C0F"/>
        </linearGradient>
        <linearGradient id="paint1_linear" x1="34.6894" x2="34.6894" y1="51.7201" y2="84" gradientUnits="userSpaceOnUse">
            <stop stop-color="#FFEC57"/>
            <stop offset="0.5" stop-color="#FFC551"/>
            <stop offset="1" stop-color="#F5A90F"/>
        </linearGradient>
        <linearGradient id="paint2_linear" x1="43.9523" x2="43.9523" y1="43.0356" y2="80.7675" gradientUnits="userSpaceOnUse">
            <stop stop-color="#46A926"/>
            <stop offset="1" stop-color="#009A56"/>
        </linearGradient>
        <linearGradient id="paint3_linear" x1="8.7681" x2="8.7681" y1="22.1218" y2="60.5911" gradientUnits="userSpaceOnUse">
            <stop stop-color="#FF4400"/>
            <stop offset="1" stop-color="#DC1414"/>
        </linearGradient>
        <linearGradient id="paint4_linear" x1="43.8342" x2="43.8342" y1="51.6351" y2="51.7497" gradientUnits="userSpaceOnUse">
            <stop stop-color="#4C5561"/>
            <stop offset="1" stop-color="#2E3842"/>
        </linearGradient>
        <linearGradient id="paint5_linear" x1="14.1394" x2="14.1394" y1="19.0151" y2="51.6351" gradientUnits="userSpaceOnUse">
            <stop stop-color="#EE00FF"/>
            <stop offset="1" stop-color="#9914DC"/>
        </linearGradient>
        <linearGradient id="paint6_linear" x1="50.3234" x2="50.4163" y1="19.1786" y2="51.6875" gradientUnits="userSpaceOnUse">
            <stop stop-color="#07B3FF"/>
            <stop offset="1" stop-color="#007DE8"/>
        </linearGradient>
        <linearGradient id="paint7_linear" x1="44.6522" x2="44.6522" y1="19.0017" y2="83.9871" gradientUnits="userSpaceOnUse">
            <stop stop-color="white"/>
            <stop offset="0.125" stop-color="white" stop-opacity="0.0980392"/>
            <stop offset="0.925" stop-opacity="0.0980392"/>
            <stop offset="1" stop-opacity="0.498039"/>
        </linearGradient>
    </defs>
</svg>
