<svg xmlns="http://www.w3.org/2000/svg" width="369" height="100" fill="none" viewBox="0 0 369 100">
    <defs>
        <style>
            @import url('https://fonts.googleapis.com/css?family=Overpass:300,900');
                .telinkrin 
            {
              -webkit-filter: url(#telinkrin);
              -moz-filter: url(#telinkrin);
              -o-filter: url(#telinkrin);
              -ms-filter: url(#telinkrin);
              filter: url(#telinkrin);
            }
        </style>
    </defs>
    <filter id="telinkrin" x="-10%" y="-10%" width="120%" height="120%" filterUnits="objectBoundingBox" primitiveUnits="userSpaceOnUse" color-interpolation-filters="sRGB">
    	<feColorMatrix type="matrix" 
         values=" 0.33 0.33 0.33 0 0
                  0.33 0.33 0.33 0 0
                  0.33 0.33 0.33 0 0
                  0    0    0    1 0" 
      in="SourceGraphic" result="colormatrix"/>
    	<feComponentTransfer in="colormatrix" result="componentTransfer">
        <feFuncR type="table" tableValues="0.21 0.43 0.7"   />
    		<feFuncG type="table" tableValues="0.38 0.65 0.81"  />
    		<feFuncB type="table" tableValues="0.44 0.72 0.84"  />
    		<feFuncA type="table" tableValues="0    1.00 1.00"  />
      </feComponentTransfer>
    	<feBlend mode="normal" in="componentTransfer" in2="SourceGraphic" result="blend"/>
    </filter>
    <path fill="url(#paint0_linear)" class="telinkrin" d="M34.6894 84H32.8563C12.0017 84 8.83357 81.0584 8.7701 60.5911L43.8342 51.75L34.6894 84Z"/>
    <path fill="url(#paint1_linear)" class="telinkrin" d="M34.6894 84H54.3066C63.8367 84 69.6736 83.3858 73.21 80.7675L43.9523 51.7201L43.8342 51.75L34.6894 84Z"/>
    <path fill="url(#paint2_linear)" class="telinkrin" d="M73.21 80.7675C77.4909 77.592 78.3948 71.4742 78.3948 59.9391V43.0763C78.3948 43.0623 78.3948 43.0487 78.3948 43.0356L43.9523 51.7201L73.21 80.7675Z"/>
    <path fill="url(#paint3_linear)" class="telinkrin" d="M43.8342 51.75L8.7701 60.5911C8.76839 60.3797 8.7681 60.1602 8.7681 59.9391V43.0763C8.7681 31.3804 9.69732 25.2541 14.1394 22.1218L43.8666 51.6351L43.8342 51.75Z"/>
    <path fill="url(#paint4_linear)" class="telinkrin" d="M43.8342 51.75L43.9523 51.7201L43.8666 51.6351L43.8342 51.75Z"/>
    <path fill="url(#paint5_linear)" class="telinkrin" d="M43.8666 51.6351L14.1394 22.1218C17.6875 19.6088 23.487 19.0151 32.8563 19.0151H53.1164L43.8666 51.6351Z"/>
    <path fill="url(#paint6_linear)" class="telinkrin" d="M43.8666 51.6351L43.9523 51.7201L78.3948 43.0356C78.3908 22.0156 75.369 19.0151 54.3066 19.0151H53.1164L43.8666 51.6351Z"/>
    <!-- <g style="mix-blend-mode:color">
        <path fill="#6DA5B7" d="M54.2143 19C75.2906 19 78.3027 22.0046 78.3027 43.0611V59.9239C78.3027 80.9804 75.2906 83.985 54.2143 83.985H32.7642C11.688 83.985 8.67586 80.9804 8.67586 59.9239V43.0611C8.67586 22.0046 11.688 19 32.7642 19H54.2143Z"/>
    </g> -->
    <path fill="url(#paint7_linear)" fill-rule="evenodd" d="M54.0399 19.002C55.2716 18.9992 56.5034 19.0132 57.7351 19.0412C58.8381 19.0635 59.941 19.1055 61.044 19.1698C62.0266 19.2257 63.0092 19.3068 63.989 19.4131C64.8596 19.5081 65.7302 19.6367 66.5924 19.7961C67.365 19.9387 68.1293 20.1205 68.8823 20.3414C69.5653 20.5399 70.2344 20.786 70.8811 21.0767C71.4829 21.3452 72.0596 21.6639 72.6055 22.0302C73.129 22.3825 73.6189 22.7852 74.0668 23.2298C74.5119 23.6771 74.915 24.1637 75.2677 24.6865C75.6344 25.2318 75.9536 25.8078 76.2251 26.4062C76.5163 27.0549 76.7626 27.7203 76.9642 28.3998C77.1853 29.152 77.3673 29.9153 77.51 30.687C77.6696 31.5482 77.7984 32.415 77.8936 33.2846C77.9999 34.2633 78.0811 35.2419 78.1371 36.2234C78.2015 37.3222 78.2435 38.4239 78.2687 39.5228C78.2939 40.7531 78.3079 41.9834 78.3051 43.2109V59.7779C78.3079 61.0082 78.2939 62.2357 78.2687 63.466C78.2435 64.5677 78.2015 65.6666 78.1371 66.7654C78.0811 67.7469 77.9999 68.7283 77.8936 69.7042C77.7984 70.5738 77.6696 71.4434 77.51 72.3046C77.3673 73.0735 77.1853 73.8369 76.9642 74.589C76.7626 75.2685 76.5163 75.9367 76.2251 76.5826C75.9536 77.1838 75.6344 77.757 75.2677 78.3023C74.915 78.8251 74.5119 79.3145 74.0668 79.759C73.6189 80.2036 73.129 80.6063 72.6055 80.9586C72.0596 81.3249 71.4829 81.6436 70.8811 81.9121C70.2344 82.2029 69.5653 82.4489 68.8823 82.6502C68.1293 82.8711 67.365 83.0529 66.5924 83.1927C65.7302 83.3549 64.8596 83.4807 63.989 83.5758C63.0092 83.682 62.0266 83.7631 61.044 83.819C59.941 83.8833 58.8381 83.9253 57.7351 83.9504C56.5034 83.9756 55.2716 83.9896 54.0399 83.9868H32.9436C31.7119 83.9896 30.4802 83.9756 29.2484 83.9504C28.1455 83.9253 27.0425 83.8833 25.9396 83.819C24.957 83.7631 23.9744 83.682 22.9946 83.5758C22.124 83.4807 21.2534 83.3549 20.3912 83.1927C19.6185 83.0529 18.8543 82.8711 18.1012 82.6502C17.4182 82.4489 16.7491 82.2029 16.1025 81.9121C15.5006 81.6436 14.9239 81.3249 14.378 80.9586C13.8546 80.6063 13.3647 80.2036 12.9168 79.759C12.4717 79.3145 12.0685 78.8251 11.7158 78.3023C11.3491 77.757 11.03 77.1838 10.7584 76.5826C10.4673 75.9367 10.2209 75.2685 10.0194 74.589C9.79824 73.8369 9.61627 73.0735 9.47351 72.3046C9.31394 71.4434 9.18517 70.5738 9.08999 69.7042C8.98361 68.7283 8.90243 67.7469 8.84644 66.7654C8.78205 65.6666 8.74006 64.5677 8.71487 63.466C8.68967 62.2357 8.67568 61.0082 8.67848 59.7779V43.2109C8.67568 41.9834 8.68967 40.7531 8.71487 39.5228C8.74006 38.4239 8.78205 37.3222 8.84644 36.2234C8.90243 35.2419 8.98361 34.2633 9.08999 33.2846C9.18517 32.415 9.31394 31.5482 9.47351 30.687C9.61627 29.9153 9.79824 29.152 10.0194 28.3998C10.2209 27.7203 10.4673 27.0549 10.7584 26.4062C11.03 25.8078 11.3491 25.2318 11.7158 24.6865C12.0685 24.1637 12.4717 23.6771 12.9168 23.2298C13.3647 22.7852 13.8546 22.3825 14.378 22.0302C14.9239 21.6639 15.5006 21.3452 16.1025 21.0767C16.7491 20.786 17.4182 20.5399 18.1012 20.3414C18.8543 20.1205 19.6185 19.9387 20.3912 19.7961C21.2534 19.6367 22.124 19.5081 22.9946 19.4131C23.9744 19.3068 24.957 19.2257 25.9396 19.1698C27.0425 19.1055 28.1455 19.0635 29.2484 19.0412C30.4802 19.0132 31.7119 18.9992 32.9436 19.002H54.0399ZM54.0427 20.1428C55.266 20.14 56.4894 20.154 57.7127 20.1792C58.8017 20.2044 59.8906 20.2463 60.9796 20.3078C61.9426 20.3637 62.9056 20.442 63.863 20.5483C64.7084 20.6378 65.551 20.7608 66.3852 20.9174C67.1187 21.0516 67.8465 21.2249 68.5632 21.4347C69.1958 21.6192 69.8145 21.8485 70.4136 22.1169C70.9566 22.3602 71.4773 22.6482 71.97 22.9781C72.4319 23.2885 72.863 23.6436 73.2578 24.0378C73.6525 24.4321 74.008 24.8627 74.3215 25.3241C74.6519 25.8162 74.9402 26.3335 75.1837 26.8731C75.4525 27.4743 75.682 28.0922 75.8668 28.7214C76.0795 29.4372 76.2503 30.1614 76.3875 30.8939C76.5414 31.7272 76.6646 32.566 76.757 33.4105C76.8634 34.3667 76.9418 35.3258 76.9977 36.2877C77.0593 37.3754 77.1041 38.4603 77.1265 39.548C77.1517 40.7699 77.1657 41.989 77.1657 43.2109V59.7779C77.1657 60.9998 77.1517 62.2189 77.1265 63.4409C77.1041 64.5285 77.0593 65.6162 76.9977 66.7011C76.9418 67.663 76.8634 68.6221 76.757 69.5812C76.6646 70.4228 76.5414 71.2616 76.3875 72.0949C76.2503 72.8275 76.0795 73.5516 75.8668 74.2675C75.682 74.8994 75.4525 75.5145 75.1837 76.1157C74.9402 76.6553 74.6519 77.1754 74.3215 77.6648C74.008 78.1289 73.6525 78.5595 73.2578 78.9538C72.863 79.3452 72.4319 79.7003 71.97 80.0107C71.4773 80.3406 70.9566 80.6286 70.4136 80.8719C69.8145 81.1431 69.1958 81.3696 68.5632 81.5542C67.8465 81.7639 67.1187 81.9372 66.3852 82.0714C65.551 82.228 64.7084 82.3511 63.863 82.4433C62.9056 82.5468 61.9426 82.6279 60.9796 82.681C59.8906 82.7425 58.8017 82.7873 57.7127 82.8096C56.4894 82.8376 55.266 82.8488 54.0427 82.8488C54.0427 82.8488 54.0427 82.8488 54.0399 82.8488H32.9436C32.9408 82.8488 32.9408 82.8488 32.9408 82.8488C31.7175 82.8488 30.4942 82.8376 29.2708 82.8096C28.1819 82.7873 27.0929 82.7425 26.0039 82.681C25.0409 82.6279 24.078 82.5468 23.1206 82.4433C22.2751 82.3511 21.4325 82.228 20.5983 82.0714C19.8649 81.9372 19.137 81.7639 18.4204 81.5542C17.7877 81.3696 17.169 81.1431 16.57 80.8719C16.0269 80.6286 15.5062 80.3406 15.0135 80.0107C14.5516 79.7003 14.1205 79.3452 13.7258 78.9538C13.3311 78.5595 12.9756 78.1289 12.662 77.6648C12.3317 77.1754 12.0434 76.6553 11.7998 76.1157C11.5311 75.5145 11.3015 74.8994 11.1168 74.2675C10.904 73.5516 10.7332 72.8275 10.5961 72.0949C10.4421 71.2616 10.3189 70.4228 10.2265 69.5812C10.1202 68.6221 10.0418 67.663 9.9858 66.7011C9.92421 65.6162 9.87942 64.5285 9.85702 63.4409C9.83183 62.2189 9.81783 60.9998 9.81783 59.7779V43.2109C9.81783 41.989 9.83183 40.7699 9.85702 39.548C9.87942 38.4603 9.92421 37.3754 9.9858 36.2877C10.0418 35.3258 10.1202 34.3667 10.2265 33.4105C10.3189 32.566 10.4421 31.7272 10.5961 30.8939C10.7332 30.1614 10.904 29.4372 11.1168 28.7214C11.3015 28.0922 11.5311 27.4743 11.7998 26.8731C12.0434 26.3335 12.3317 25.8162 12.662 25.3241C12.9756 24.8627 13.3311 24.4321 13.7258 24.0378C14.1205 23.6436 14.5516 23.2885 15.0135 22.9781C15.5062 22.6482 16.0269 22.3602 16.57 22.1169C17.169 21.8485 17.7877 21.6192 18.4204 21.4347C19.137 21.2249 19.8649 21.0516 20.5983 20.9174C21.4325 20.7608 22.2751 20.6378 23.1206 20.5483C24.078 20.442 25.0409 20.3637 26.0039 20.3078C27.0929 20.2463 28.1819 20.2044 29.2708 20.1792C30.4942 20.154 31.7175 20.14 32.9408 20.1428C32.9408 20.1428 32.9408 20.1428 32.9436 20.1428H54.0399C54.0427 20.1428 54.0427 20.1428 54.0427 20.1428Z" clip-rule="evenodd" opacity="0.4"/>
    <path fill="#2E3842" fill-opacity="0.2" d="M43.5803 34.2632C33.292 34.2632 24.9519 42.6034 24.9519 52.8917C24.9519 63.1797 33.292 71.5199 43.5803 71.5199C53.8686 71.5199 62.2088 63.1797 62.2088 52.8917V38.9204C62.2088 36.3402 60.1315 34.2632 57.5516 34.2632H43.5803ZM54.0587 38.9204C55.9877 38.9204 57.5516 40.484 57.5516 42.413C57.5516 44.342 55.9877 45.9059 54.0587 45.9059C52.1297 45.9059 50.5658 44.342 50.5658 42.413C50.5658 40.484 52.1297 38.9204 54.0587 38.9204Z"/>
    <path fill="white" d="M43.5803 33.2632C33.292 33.2632 24.9519 41.6034 24.9519 51.8917C24.9519 62.1797 33.292 70.5199 43.5803 70.5199C53.8686 70.5199 62.2088 62.1797 62.2088 51.8917V37.9204C62.2088 35.3402 60.1315 33.2632 57.5516 33.2632H43.5803ZM54.0587 37.9204C55.9877 37.9204 57.5516 39.484 57.5516 41.413C57.5516 43.342 55.9877 44.9059 54.0587 44.9059C52.1297 44.9059 50.5658 43.342 50.5658 41.413C50.5658 39.484 52.1297 37.9204 54.0587 37.9204Z"/>
    <path fill="#68A0B2" fill-rule="evenodd" d="M355.14 55.4561H96V50.9571H355.14V55.4561Z" clip-rule="evenodd"/>
    <path fill="#8CC4D6" fill-rule="evenodd" d="M114.896 55.4561H96V50.9571H117.595L114.896 55.4561Z" clip-rule="evenodd"/>
    <path fill="#8CC4D6" fill-rule="evenodd" d="M154.486 55.4561H132.891L135.591 50.9571H157.186L154.486 55.4561Z" clip-rule="evenodd"/>
    <path fill="#8CC4D6" fill-rule="evenodd" d="M199.476 55.4561H177.881L180.58 50.9571H202.175L199.476 55.4561Z" clip-rule="evenodd"/>
    <path fill="#8CC4D6" fill-rule="evenodd" d="M244.465 55.4561H222.87L225.57 50.9571H247.165L244.465 55.4561Z" clip-rule="evenodd"/>
    <path fill="#8CC4D6" fill-rule="evenodd" d="M289.455 55.4561H267.86L270.559 50.9571H292.154L289.455 55.4561Z" clip-rule="evenodd"/>
    <path fill="#8CC4D6" fill-rule="evenodd" d="M334.444 55.4561H312.849L315.549 50.9571H337.144L334.444 55.4561Z" clip-rule="evenodd"/>
    <text x="96" y="40" fill="#387082" font-family="Overpass" font-size="31px" font-weight="900">
        Colour Telinkriser
    </text>
    <text x="96" y="80" fill="#68A0B2" font-family="Overpass" font-size="20px" font-weight="300">
        Daniel Ruiz de Alegría
    </text>
    <defs>
        <linearGradient id="paint0_linear" x1="8.7701" x2="8.7701" y1="51.75" y2="84.0003" gradientUnits="userSpaceOnUse">
            <stop stop-color="#FFB357"/>
            <stop offset="0.5" stop-color="#FF8B51"/>
            <stop offset="1" stop-color="#F55C0F"/>
        </linearGradient>
        <linearGradient id="paint1_linear" x1="34.6894" x2="34.6894" y1="51.7201" y2="84" gradientUnits="userSpaceOnUse">
            <stop stop-color="#FFEC57"/>
            <stop offset="0.5" stop-color="#FFC551"/>
            <stop offset="1" stop-color="#F5A90F"/>
        </linearGradient>
        <linearGradient id="paint2_linear" x1="43.9523" x2="43.9523" y1="43.0356" y2="80.7675" gradientUnits="userSpaceOnUse">
            <stop stop-color="#46A926"/>
            <stop offset="1" stop-color="#009A56"/>
        </linearGradient>
        <linearGradient id="paint3_linear" x1="8.7681" x2="8.7681" y1="22.1218" y2="60.5911" gradientUnits="userSpaceOnUse">
            <stop stop-color="#FF4400"/>
            <stop offset="1" stop-color="#DC1414"/>
        </linearGradient>
        <linearGradient id="paint4_linear" x1="43.8342" x2="43.8342" y1="51.6351" y2="51.7497" gradientUnits="userSpaceOnUse">
            <stop stop-color="#4C5561"/>
            <stop offset="1" stop-color="#2E3842"/>
        </linearGradient>
        <linearGradient id="paint5_linear" x1="14.1394" x2="14.1394" y1="19.0151" y2="51.6351" gradientUnits="userSpaceOnUse">
            <stop stop-color="#EE00FF"/>
            <stop offset="1" stop-color="#9914DC"/>
        </linearGradient>
        <linearGradient id="paint6_linear" x1="50.3234" x2="50.4163" y1="19.1786" y2="51.6875" gradientUnits="userSpaceOnUse">
            <stop stop-color="#07B3FF"/>
            <stop offset="1" stop-color="#007DE8"/>
        </linearGradient>
        <linearGradient id="paint7_linear" x1="44.6522" x2="44.6522" y1="19.0017" y2="83.9871" gradientUnits="userSpaceOnUse">
            <stop stop-color="white"/>
            <stop offset="0.125" stop-color="white" stop-opacity="0.0980392"/>
            <stop offset="0.925" stop-opacity="0.0980392"/>
            <stop offset="1" stop-opacity="0.498039"/>
        </linearGradient>
    </defs>
</svg>
